<svg xmlns="http://www.w3.org/2000/svg" version="1.1" xmlns:xlink="http://www.w3.org/1999/xlink" xmlns:svgjs="http://svgjs.dev/svgjs" width="128" height="128" viewBox="0 0 128 128"><g transform="matrix(0.8046875,0,0,0.8046875,12.789000782442699,35.28552117363962)"><svg viewBox="0 0 95 54" data-background-color="#ffffff" preserveAspectRatio="xMidYMid meet" height="72" width="128" xmlns="http://www.w3.org/2000/svg" xmlns:xlink="http://www.w3.org/1999/xlink"><g id="tight-bounds" transform="matrix(1,0,0,1,-0.24053322093661222,-0.23699060844081998)"><svg viewBox="0 0 95.481 54.4475098" height="54.4475098" width="95.481"><g><svg viewBox="0 0 95.481 54.4475098" height="54.4475098" width="95.481"><g><svg viewBox="0 0 95.481 54.4475098" height="54.4475098" width="95.481"><g id="textblocktransform"><svg viewBox="0 0 95.481 54.4475098" height="54.4475098" width="95.481" id="textblock"><g><svg viewBox="0 0 95.481 54.4475098" height="54.4475098" width="95.481"><g><svg viewBox="0 0 95.481 54.4475098" height="54.4475098" width="95.481"><g><svg xmlns="http://www.w3.org/2000/svg" xmlns:xlink="http://www.w3.org/1999/xlink" version="1.1" x="0" y="0" viewBox="5 24.239 90 51.322" enable-background="new 0 0 100 100" xml:space="preserve" height="54.4475098" width="95.481" class="icon-icon-0" data-fill-palette-color="accent" id="icon-0"><g fill="#755bb4" data-fill-palette-color="accent"><path d="M95 69.239A2.7 2.7 0 0 1 92.301 71.938H81.505A2.699 2.699 0 1 1 81.505 66.54H89.514C88.913 57.647 85.364 49.556 79.831 43.227L74.183 48.868A2.66 2.66 0 0 1 72.28 49.664 2.67 2.67 0 0 1 70.37 48.868 2.684 2.684 0 0 1 70.37 45.056L76.011 39.408C69.682 33.882 61.591 30.332 52.698 29.732V37.735A2.699 2.699 0 1 1 47.3 37.735V29.732C38.407 30.333 30.309 33.882 23.987 39.408L47.86 63.281A6.34 6.34 0 0 1 56.328 69.239C56.328 72.727 53.489 75.561 50 75.561A6.327 6.327 0 0 1 44.048 67.106L20.175 43.226C14.642 49.555 11.093 57.646 10.492 66.539H18.495A2.699 2.699 0 1 1 18.495 71.937H7.699A2.7 2.7 0 0 1 5 69.239C5 56.952 9.953 45.791 17.976 37.667 18.131 37.505 18.286 37.343 18.455 37.188 26.579 29.178 37.719 24.239 50 24.239 62.274 24.239 73.408 29.178 81.532 37.174A10 10 0 0 1 82.079 37.721C90.067 45.845 95 56.978 95 69.239" fill="#755bb4" data-fill-palette-color="accent"></path></g></svg></g></svg></g></svg></g></svg></g></svg></g><g></g></svg></g><defs></defs></svg><rect width="95.481" height="54.4475098" fill="none" stroke="none" visibility="hidden"></rect></g></svg></g></svg>