<svg xmlns="http://www.w3.org/2000/svg" version="1.1" xmlns:xlink="http://www.w3.org/1999/xlink" xmlns:svgjs="http://svgjs.dev/svgjs" width="2000" height="671" viewBox="0 0 2000 671"><g transform="matrix(1,0,0,1,-1.2121212121212466,0.9048653308097983)"><svg viewBox="0 0 396 133" data-background-color="#ffffff" preserveAspectRatio="xMidYMid meet" height="671" width="2000" xmlns="http://www.w3.org/2000/svg" xmlns:xlink="http://www.w3.org/1999/xlink"><g id="tight-bounds" transform="matrix(1,0,0,1,0.2400000000000091,-0.17935482712027806)"><svg viewBox="0 0 395.52 133.35870965424058" height="133.35870965424058" width="395.52"><g><svg viewBox="0 0 395.52 133.35870965424058" height="133.35870965424058" width="395.52"><g transform="matrix(1,0,0,1,0,98.75671694464155)"><svg viewBox="0 0 395.52 34.60199270959903" height="34.60199270959903" width="395.52"><g id="textblocktransform"><svg viewBox="0 0 395.52 34.60199270959903" height="34.60199270959903" width="395.52" id="textblock"><g><svg viewBox="0 0 395.52 34.60199270959903" height="34.60199270959903" width="395.52"><g transform="matrix(1,0,0,1,0,0)"><svg width="395.52" viewBox="0.9 -38.9 452.62 39.6" height="34.60199270959903" data-palette-color="#755bb4"><path d="M27.85-8.2L30.05-8.2 30.05 0 16.85 0 16.85-3.4Q15.75-1.8 13.78-0.55 11.8 0.7 8.95 0.7L8.95 0.7Q5.2 0.7 3.05-1.3 0.9-3.3 0.9-6.95L0.9-6.95Q0.9-16.4 16.95-16.65L16.95-16.65Q16.8-18.35 15.65-18.98 14.5-19.6 11.75-19.6L11.75-19.6Q9.5-19.6 6.93-19.13 4.35-18.65 2.2-17.85L2.2-17.85 2.2-27.05Q4.85-27.7 7.95-28.1 11.05-28.5 14-28.5L14-28.5Q21.45-28.5 24.65-25.8 27.85-23.1 27.85-17.45L27.85-17.45 27.85-8.2ZM16.85-11.4L16.85-11.7Q14.6-11.7 13.38-11.1 12.15-10.5 12.15-9.1L12.15-9.1Q12.15-8.25 12.68-7.73 13.2-7.2 14.15-7.2L14.15-7.2Q15.45-7.2 16.15-8.3 16.85-9.4 16.85-11.4L16.85-11.4ZM41.5 0.7Q36.4 0.7 33.82-3.1 31.25-6.9 31.25-13.9L31.25-13.9Q31.25-20.9 33.82-24.7 36.4-28.5 41.5-28.5L41.5-28.5Q44.05-28.5 46.02-27.25 48-26 49.25-24.4L49.25-24.4 49.25-30.7 46.3-30.7 46.3-38.9 60.75-38.9 60.75-8.2 62.95-8.2 62.95 0 49.25 0 49.25-3.4Q48-1.8 46.02-0.55 44.05 0.7 41.5 0.7L41.5 0.7ZM46.35-8.2Q47.8-8.2 48.52-8.97 49.25-9.75 49.25-11.4L49.25-11.4 49.25-16.4Q49.25-18.05 48.52-18.82 47.8-19.6 46.35-19.6L46.35-19.6Q44.9-19.6 44.17-18.82 43.45-18.05 43.45-16.4L43.45-16.4 43.45-11.4Q43.45-9.75 44.17-8.97 44.9-8.2 46.35-8.2L46.35-8.2ZM112.84-8.2L115.05-8.2 115.05 0 99.25 0 99.25-8.2 101.34-8.2 101.34-16.4Q101.34-18.05 100.64-18.82 99.94-19.6 98.54-19.6L98.54-19.6Q95.55-19.6 95.55-16.4L95.55-16.4 95.55-8.2 97.64-8.2 97.64 0 81.94 0 81.94-8.2 84.05-8.2 84.05-16.4Q84.05-18.05 83.34-18.82 82.64-19.6 81.25-19.6L81.25-19.6Q78.25-19.6 78.25-16.4L78.25-16.4 78.25-8.2 80.34-8.2 80.34 0 64.55 0 64.55-8.2 66.74-8.2 66.74-19.6 64.55-19.6 64.55-27.8 78.25-27.8 78.25-23.9Q81.84-28.5 87.25-28.5L87.25-28.5Q90.3-28.5 92.22-27.08 94.14-25.65 94.94-23.05L94.94-23.05Q96.75-25.65 99.07-27.05 101.39-28.45 104.55-28.45L104.55-28.45Q108.69-28.45 110.77-25.85 112.84-23.25 112.84-18.7L112.84-18.7 112.84-8.2ZM129.24-30.55L119.04-30.55 119.04-38.9 129.24-38.9 129.24-30.55ZM132.54 0L116.64 0 116.64-8.2 118.84-8.2 118.84-19.6 116.64-19.6 116.64-27.8 130.34-27.8 130.34-8.2 132.54-8.2 132.54 0ZM164.94-8.2L167.14-8.2 167.14 0 151.34 0 151.34-8.2 153.44-8.2 153.44-16.4Q153.44-18.05 152.74-18.82 152.04-19.6 150.64-19.6L150.64-19.6Q147.64-19.6 147.64-16.4L147.64-16.4 147.64-8.2 149.74-8.2 149.74 0 133.94 0 133.94-8.2 136.14-8.2 136.14-19.6 133.94-19.6 133.94-27.8 147.64-27.8 147.64-23.9Q151.24-28.5 156.64-28.5L156.64-28.5Q160.79-28.5 162.87-25.9 164.94-23.3 164.94-18.75L164.94-18.75 164.94-8.2ZM168.84 0L168.84-8.2 171.34-8.2 171.34-30.65 168.84-30.65 168.84-38.9 189.14-38.9Q197.49-38.9 202.41-34.33 207.34-29.75 207.34-19.45L207.34-19.45Q207.34-9.15 202.41-4.58 197.49 0 189.14 0L189.14 0 168.84 0ZM185.34-8.2L188.24-8.2Q189.94-8.2 190.79-9.1 191.64-10 191.64-11.9L191.64-11.9 191.64-27Q191.64-30.7 188.24-30.7L188.24-30.7 185.34-30.7 185.34-8.2ZM235.89-8.2L238.09-8.2 238.09 0 224.89 0 224.89-3.4Q223.79-1.8 221.81-0.55 219.84 0.7 216.99 0.7L216.99 0.7Q213.24 0.7 211.09-1.3 208.94-3.3 208.94-6.95L208.94-6.95Q208.94-16.4 224.99-16.65L224.99-16.65Q224.84-18.35 223.69-18.98 222.54-19.6 219.79-19.6L219.79-19.6Q217.54-19.6 214.96-19.13 212.39-18.65 210.24-17.85L210.24-17.85 210.24-27.05Q212.89-27.7 215.99-28.1 219.09-28.5 222.04-28.5L222.04-28.5Q229.49-28.5 232.69-25.8 235.89-23.1 235.89-17.45L235.89-17.45 235.89-8.2ZM224.89-11.4L224.89-11.7Q222.64-11.7 221.41-11.1 220.19-10.5 220.19-9.1L220.19-9.1Q220.19-8.25 220.71-7.73 221.24-7.2 222.19-7.2L222.19-7.2Q223.49-7.2 224.19-8.3 224.89-9.4 224.89-11.4L224.89-11.4ZM251.83 0.7Q245.53 0.7 239.68-1.3L239.68-1.3 239.68-8.7 247.78-8.7 247.78-8.2Q247.78-5.8 250.83-5.8L250.83-5.8Q253.53-5.8 253.53-7.65L253.53-7.65Q253.53-8.65 252.76-9.15 251.98-9.65 250.03-10L250.03-10 247.53-10.45Q239.68-11.85 239.68-19.35L239.68-19.35Q239.68-23.7 242.98-26.1 246.28-28.5 251.88-28.5L251.88-28.5Q258.13-28.5 262.43-26.4L262.43-26.4 262.43-19.45 254.83-19.45 254.83-19.95Q254.83-20.95 254.16-21.48 253.48-22 252.18-22L252.18-22Q249.68-22 249.68-20.4L249.68-20.4Q249.68-19.55 250.38-19.1 251.08-18.65 252.93-18.25L252.93-18.25 255.78-17.7Q260.23-16.85 262.13-14.55 264.03-12.25 264.03-8.65L264.03-8.65Q264.03-4.1 260.86-1.7 257.68 0.7 251.83 0.7L251.83 0.7ZM296.63-8.2L298.83-8.2 298.83 0 283.03 0 283.03-8.2 285.13-8.2 285.13-16.4Q285.13-18.05 284.43-18.82 283.73-19.6 282.33-19.6L282.33-19.6Q279.33-19.6 279.33-16.4L279.33-16.4 279.33-8.2 281.43-8.2 281.43 0 265.63 0 265.63-8.2 267.83-8.2 267.83-30.7 265.63-30.7 265.63-38.9 279.33-38.9 279.33-23.9Q281.18-26.2 283.33-27.35 285.48-28.5 288.33-28.5L288.33-28.5Q292.48-28.5 294.56-25.9 296.63-23.3 296.63-18.75L296.63-18.75 296.63-8.2ZM321.88 0.7Q319.33 0.7 317.35-0.55 315.38-1.8 314.13-3.4L314.13-3.4 314.13 0 300.43 0 300.43-8.2 302.63-8.2 302.63-30.7 300.43-30.7 300.43-38.9 314.13-38.9 314.13-24.4Q315.38-26 317.35-27.25 319.33-28.5 321.88-28.5L321.88-28.5Q326.98-28.5 329.55-24.7 332.13-20.9 332.13-13.9L332.13-13.9Q332.13-6.9 329.55-3.1 326.98 0.7 321.88 0.7L321.88 0.7ZM317.03-8.2Q318.48-8.2 319.2-8.97 319.93-9.75 319.93-11.4L319.93-11.4 319.93-16.4Q319.93-18.05 319.2-18.82 318.48-19.6 317.03-19.6L317.03-19.6Q315.58-19.6 314.85-18.82 314.13-18.05 314.13-16.4L314.13-16.4 314.13-11.4Q314.13-9.75 314.85-8.97 315.58-8.2 317.03-8.2L317.03-8.2ZM348.43 0.7Q341.33 0.7 337.33-3.03 333.33-6.75 333.33-13.9L333.33-13.9Q333.33-21.05 337.33-24.78 341.33-28.5 348.43-28.5L348.43-28.5Q355.63-28.5 359.58-24.73 363.53-20.95 363.53-13.9L363.53-13.9Q363.53-6.75 359.53-3.03 355.53 0.7 348.43 0.7L348.43 0.7ZM348.43-8.2Q349.88-8.2 350.6-8.97 351.33-9.75 351.33-11.4L351.33-11.4 351.33-16.4Q351.33-18.05 350.6-18.82 349.88-19.6 348.43-19.6L348.43-19.6Q346.98-19.6 346.25-18.82 345.53-18.05 345.53-16.4L345.53-16.4 345.53-11.4Q345.53-9.75 346.25-8.97 346.98-8.2 348.43-8.2L348.43-8.2ZM392.07-8.2L394.27-8.2 394.27 0 381.07 0 381.07-3.4Q379.97-1.8 378-0.55 376.02 0.7 373.17 0.7L373.17 0.7Q369.42 0.7 367.27-1.3 365.12-3.3 365.12-6.95L365.12-6.95Q365.12-16.4 381.17-16.65L381.17-16.65Q381.02-18.35 379.87-18.98 378.72-19.6 375.97-19.6L375.97-19.6Q373.72-19.6 371.15-19.13 368.57-18.65 366.42-17.85L366.42-17.85 366.42-27.05Q369.07-27.7 372.17-28.1 375.27-28.5 378.22-28.5L378.22-28.5Q385.67-28.5 388.87-25.8 392.07-23.1 392.07-17.45L392.07-17.45 392.07-8.2ZM381.07-11.4L381.07-11.7Q378.82-11.7 377.6-11.1 376.37-10.5 376.37-9.1L376.37-9.1Q376.37-8.25 376.9-7.73 377.42-7.2 378.37-7.2L378.37-7.2Q379.67-7.2 380.37-8.3 381.07-9.4 381.07-11.4L381.07-11.4ZM417.22-28.5Q418.22-28.5 419.12-28.3 420.02-28.1 420.62-27.8L420.62-27.8 420.62-18.25Q418.57-19.1 416.22-19.1L416.22-19.1Q413.07-19.1 411.37-17.45 409.67-15.8 409.67-12.55L409.67-12.55 409.67-8.2 414.17-8.2 414.17 0 395.97 0 395.97-8.2 398.17-8.2 398.17-19.6 395.97-19.6 395.97-27.8 409.67-27.8 409.67-24.15Q411.07-26.25 412.87-27.38 414.67-28.5 417.22-28.5L417.22-28.5ZM432.07 0.7Q426.97 0.7 424.39-3.1 421.82-6.9 421.82-13.9L421.82-13.9Q421.82-20.9 424.39-24.7 426.97-28.5 432.07-28.5L432.07-28.5Q434.62-28.5 436.59-27.25 438.57-26 439.82-24.4L439.82-24.4 439.82-30.7 436.87-30.7 436.87-38.9 451.32-38.9 451.32-8.2 453.52-8.2 453.52 0 439.82 0 439.82-3.4Q438.57-1.8 436.59-0.55 434.62 0.7 432.07 0.7L432.07 0.7ZM436.92-8.2Q438.37-8.2 439.09-8.97 439.82-9.75 439.82-11.4L439.82-11.4 439.82-16.4Q439.82-18.05 439.09-18.82 438.37-19.6 436.92-19.6L436.92-19.6Q435.47-19.6 434.74-18.82 434.02-18.05 434.02-16.4L434.02-16.4 434.02-11.4Q434.02-9.75 434.74-8.97 435.47-8.2 436.92-8.2L436.92-8.2Z" opacity="1" transform="matrix(1,0,0,1,0,0)" fill="#755bb4" class="wordmark-text-0" data-fill-palette-color="primary" id="text-0"></path></svg></g></svg></g></svg></g></svg></g><g transform="matrix(1,0,0,1,118.33089043455317,0)"><svg viewBox="0 0 158.85821913089364 90.58801691373026" height="90.58801691373026" width="158.85821913089364"><g><svg xmlns="http://www.w3.org/2000/svg" xmlns:xlink="http://www.w3.org/1999/xlink" version="1.1" x="0" y="0" viewBox="5 24.239 90 51.322" enable-background="new 0 0 100 100" xml:space="preserve" height="90.58801691373026" width="158.85821913089364" class="icon-icon-0" data-fill-palette-color="accent" id="icon-0"><g fill="#755bb4" data-fill-palette-color="accent"><path d="M95 69.239A2.7 2.7 0 0 1 92.301 71.938H81.505A2.699 2.699 0 1 1 81.505 66.54H89.514C88.913 57.647 85.364 49.556 79.831 43.227L74.183 48.868A2.66 2.66 0 0 1 72.28 49.664 2.67 2.67 0 0 1 70.37 48.868 2.684 2.684 0 0 1 70.37 45.056L76.011 39.408C69.682 33.882 61.591 30.332 52.698 29.732V37.735A2.699 2.699 0 1 1 47.3 37.735V29.732C38.407 30.333 30.309 33.882 23.987 39.408L47.86 63.281A6.34 6.34 0 0 1 56.328 69.239C56.328 72.727 53.489 75.561 50 75.561A6.327 6.327 0 0 1 44.048 67.106L20.175 43.226C14.642 49.555 11.093 57.646 10.492 66.539H18.495A2.699 2.699 0 1 1 18.495 71.937H7.699A2.7 2.7 0 0 1 5 69.239C5 56.952 9.953 45.791 17.976 37.667 18.131 37.505 18.286 37.343 18.455 37.188 26.579 29.178 37.719 24.239 50 24.239 62.274 24.239 73.408 29.178 81.532 37.174A10 10 0 0 1 82.079 37.721C90.067 45.845 95 56.978 95 69.239" fill="#755bb4" data-fill-palette-color="accent"></path></g></svg></g></svg></g><g></g></svg></g><defs></defs></svg><rect width="395.52" height="133.35870965424058" fill="none" stroke="none" visibility="hidden"></rect></g></svg></g></svg>